<?xml version="1.0" standalone="no"?>
<!DOCTYPE svg PUBLIC "-//W3C//DTD SVG 20010904//EN"
 "http://www.w3.org/TR/2001/REC-SVG-20010904/DTD/svg10.dtd">
<svg version="1.0" xmlns="http://www.w3.org/2000/svg"
 width="1667.000000pt" height="1667.000000pt" viewBox="0 0 1667.000000 1667.000000"
 preserveAspectRatio="xMidYMid meet">

<g transform="translate(0.000000,1667.000000) scale(0.100000,-0.100000)"
fill="#000000" stroke="none">
<path d="M7890 16654 c-25 -2 -110 -8 -190 -14 -2247 -163 -4342 -1249 -5796
-3005 -54 -66 -160 -201 -234 -300 -1299 -1730 -1866 -3863 -1605 -6035 183
-1515 809 -2991 1779 -4195 345 -428 833 -916 1261 -1261 1767 -1424 4034
-2063 6295 -1774 1666 213 3202 914 4485 2049 282 249 668 654 922 968 978
1204 1607 2680 1792 4203 50 408 56 511 56 1045 -1 535 -7 650 -56 1045 -227
1828 -1063 3533 -2374 4845 -1221 1221 -2793 2035 -4475 2319 -506 85 -775
108 -1350 111 -256 1 -485 1 -510 -1z m2688 -8322 l2 -5132 -627 2 -628 3 -3
1928 -2 1927 -543 0 -543 0 -809 -1837 c-445 -1011 -828 -1880 -851 -1930
l-43 -93 -715 0 c-468 0 -716 3 -716 10 0 5 423 946 941 2091 517 1144 939
2082 937 2084 -2 1 -44 28 -95 59 -409 252 -777 645 -977 1044 -184 367 -292
732 -348 1172 -17 139 -17 788 0 960 70 685 276 1268 604 1712 453 613 1074
974 1890 1099 219 33 337 36 1453 35 l1070 -1 3 -5133z"/>
<path d="M8317 12369 c-188 -21 -345 -67 -512 -149 -259 -127 -449 -317 -618
-616 -140 -249 -243 -604 -282 -976 -18 -172 -21 -669 -5 -829 35 -356 125
-685 248 -912 212 -392 505 -609 937 -696 172 -35 293 -41 771 -41 l464 0 0
2115 0 2115 -467 -1 c-258 -1 -499 -5 -536 -10z"/>
</g>
</svg>
